<?xml version="1.0" encoding="UTF-8" standalone="no"?>
<svg width="52px" height="42px" viewBox="0 0 52 42" version="1.1" xmlns="http://www.w3.org/2000/svg" xmlns:xlink="http://www.w3.org/1999/xlink" xmlns:sketch="http://www.bohemiancoding.com/sketch/ns">
    <!-- Generator: sketchtool 3.4 (375) - http://www.bohemiancoding.com/sketch -->
    <title>Page 1</title>
    <desc>Created with sketchtool.</desc>
    <defs></defs>
    <g id="Customer-Data" stroke="none" stroke-width="1" fill="none" fill-rule="evenodd" sketch:type="MSPage">
        <g id="Desktop:-2.4.1.1-Customer-Data-private-|-SOHO" sketch:type="MSArtboardGroup" transform="translate(-1010.000000, -4310.000000)" stroke="#666666" stroke-width="2" stroke-linecap="round" stroke-linejoin="round">
            <g id="Group" sketch:type="MSLayerGroup" transform="translate(244.000000, 4298.000000)">
                <g id="AVAILABILITY-CHECK-+-Page-1-Copy-2" transform="translate(634.000000, 13.000000)" sketch:type="MSShapeGroup">
                    <g id="Page-1" transform="translate(133.000000, 0.000000)">
                        <path d="M21.4011908,21.8198473 C22.6451603,21.4726718 23.7993588,20.9120611 24.8250076,20.1825954" id="Stroke-1"></path>
                        <path d="M24.8251603,2.15157252 C23.0178321,0.865770992 20.8095878,0.10729771 18.4227176,0.10729771 C12.3140153,0.10729771 7.3619542,5.05935878 7.3619542,11.1680611 C7.3619542,16.2443969 10.7827176,20.5189008 15.4440916,21.8199695 C6.68653435,23.2443969 0.000122137405,30.8398168 0.000122137405,40.0001221 L12.8050076,40.0001221" id="Stroke-3"></path>
                        <path d="M24.8251908,22.7275115 C31.8425954,25.3293435 36.8456489,32.0777405 36.8456489,39.9998779 L45.0141985,39.9998779 L49.6505344,39.9998779 C49.6505344,30.8395725 42.9641221,23.2441527 34.2062595,21.8197252 C38.8673282,20.5189618 42.2883969,16.244458 42.2883969,11.1681221 C42.2883969,5.05941985 37.3363359,0.107358779 31.2276336,0.107358779 C28.8407634,0.107358779 26.6325191,0.865832061 24.8251908,2.15163359 C27.6432061,4.15621374 29.4835115,7.44629008 29.4835115,11.1681221 C29.4835115,14.8896489 27.6435115,18.1788092 24.8251908,20.1824733" id="Stroke-5"></path>
                    </g>
                </g>
            </g>
        </g>
    </g>
</svg>