<?xml version="1.0" encoding="UTF-8" standalone="no"?>
<svg width="17px" height="29px" viewBox="0 0 17 29" version="1.1" xmlns="http://www.w3.org/2000/svg" xmlns:xlink="http://www.w3.org/1999/xlink" xmlns:sketch="http://www.bohemiancoding.com/sketch/ns">
    <!-- Generator: sketchtool 3.4 (356) - http://www.bohemiancoding.com/sketch -->
    <title>pfeil copy 5</title>
    <desc>Created with sketchtool.</desc>
    <defs>
        <path id="path-1" d="M14.5,10.4560536 L4.72078571,0.776267857 C3.64157143,-0.259446429 1.89121429,-0.259446429 0.809928571,0.776267857 C-0.269285714,1.816125 -0.269285714,3.49605357 0.809928571,4.53176786 L12.5425,15.794125 C13.6258571,16.8298393 15.3762143,16.8298393 16.4554286,15.794125 L28.1900714,4.53176786 C29.2692857,3.49605357 29.2692857,1.816125 28.1900714,0.776267857 C27.1087857,-0.259446429 25.3563571,-0.259446429 24.2771429,1.06833929 L14.5,10.4560536 L14.5,10.4560536 Z"></path>
    </defs>
    <g id="Order-Overview" stroke="none" stroke-width="1" fill="none" fill-rule="evenodd" sketch:type="MSPage">
        <g id="Orders-overview" sketch:type="MSArtboardGroup" transform="translate(-369.000000, -857.000000)">
            <g id="pfeil-copy-5" sketch:type="MSLayerGroup" transform="translate(377.285714, 871.500000) rotate(-270.000000) translate(-377.285714, -871.500000) translate(362.785714, 863.214286)">
                <mask id="mask-2" sketch:name="Clip 9" fill="white">
                    <use xlink:href="#path-1"></use>
                </mask>
                <g id="Clip-9"></g>
                <path d="M39.3565214,-14.5005179 L39.3565214,22.7851964 L-10.3567286,22.7851964 L-10.3567286,-14.5005179 L39.3565214,-14.5005179 Z" id="Fill-8" fill="#333333" sketch:type="MSShapeGroup" mask="url(#mask-2)"></path>
            </g>
        </g>
    </g>
</svg>