<?xml version="1.0" encoding="UTF-8" standalone="no"?>
<svg width="32px" height="40px" viewBox="0 0 32 40" version="1.1" xmlns="http://www.w3.org/2000/svg" xmlns:xlink="http://www.w3.org/1999/xlink" xmlns:sketch="http://www.bohemiancoding.com/sketch/ns">
    <!-- Generator: sketchtool 3.4 (375) - http://www.bohemiancoding.com/sketch -->
    <title>Page 1</title>
    <desc>Created with sketchtool.</desc>
    <defs></defs>
    <g id="2.12.1-PDF-download" stroke="none" stroke-width="1" fill="none" fill-rule="evenodd" sketch:type="MSPage">
        <g id="Sprint-4---2.12.1-PDF-Download" sketch:type="MSArtboardGroup" transform="translate(-2892.000000, -1356.000000)" stroke="#666666" stroke-width="2" stroke-linecap="round" stroke-linejoin="round">
            <g id="AVAILABILITY-CHECK-+-Page-1-Copy-2" sketch:type="MSLayerGroup" transform="translate(2433.000000, 1357.000000)">
                <path d="M477.766454,27.8045336 L489.112259,16.4578977 L478.62747,16.4578977 L478.633563,4.07217137 C478.633563,1.8228395 476.810723,0 474.561391,0 C472.312613,0 470.489774,1.8228395 470.489774,4.07217137 L470.484512,16.4578977 L460,16.4578977 L474.250661,30.625476 L464.004597,30.625476 C462.02667,30.625476 460.424554,32.2275918 460.424554,34.2049656 C460.424554,36.1820624 462.02667,37.7841782 464.004597,37.7841782 C464.00709,37.7841782 464.01069,37.7830705 464.012629,37.7830705 L485.118462,37.7830705 C485.120678,37.7830705 485.124001,37.7841782 485.126494,37.7841782 C485.128986,37.7841782 485.132033,37.7830705 485.134248,37.7830705 L485.295429,37.7830705 L485.295429,37.7675617 C487.191935,37.6764474 488.705706,36.1247352 488.705706,34.2049656 C488.705706,32.2849191 487.191935,30.7307144 485.295429,30.6426465 L485.295429,30.625476 L480.056219,30.625476" id="Page-1" sketch:type="MSShapeGroup"></path>
            </g>
        </g>
    </g>
</svg>