<?xml version="1.0" encoding="UTF-8" standalone="no"?>
<svg width="30px" height="42px" viewBox="0 0 30 42" version="1.1" xmlns="http://www.w3.org/2000/svg" xmlns:xlink="http://www.w3.org/1999/xlink" xmlns:sketch="http://www.bohemiancoding.com/sketch/ns">
    <!-- Generator: sketchtool 3.4 (356) - http://www.bohemiancoding.com/sketch -->
    <title>Group 11</title>
    <desc>Created with sketchtool.</desc>
    <defs></defs>
    <g id="Page-1" stroke="none" stroke-width="1" fill="none" fill-rule="evenodd" sketch:type="MSPage">
        <g id="Icons" sketch:type="MSArtboardGroup" transform="translate(-433.000000, -468.000000)" stroke-linecap="round" stroke="#666666" stroke-width="2">
            <g id="Vertragskopien-drucken" sketch:type="MSLayerGroup" transform="translate(293.000000, 469.000000)">
                <g id="Group-11" transform="translate(141.000000, 0.000000)" sketch:type="MSShapeGroup">
                    <path d="M23.3303066,18.7134891 L23.3303066,36.3969927 C23.3303066,38.2253139 21.8482628,39.7079416 20.0193577,39.7079416 L3.31074453,39.7079416 C1.48213139,39.7079416 8.7591241e-05,38.2253139 8.7591241e-05,36.3969927 L8.7591241e-05,7.94472993 C8.7591241e-05,6.11670073 1.48213139,4.63407299 3.31074453,4.63407299 L20.0193577,4.63407299 C21.8482628,4.63407299 23.3303066,6.11670073 23.3303066,7.94472993 L23.3303066,14.1149489" id="Stroke-5"></path>
                    <path d="M4.63132847,3.37077372 C4.63132847,1.54245255 6.11337226,0.0598248175 7.9419854,0.0598248175 L24.6505985,0.0598248175 C26.4795036,0.0598248175 27.9615474,1.54245255 27.9615474,3.37077372 L27.9615474,9.5409927" id="Stroke-7"></path>
                    <path d="M27.961635,14.1394745 L27.961635,31.8229781 C27.961635,33.6512993 26.4795912,35.133635 24.6506861,35.133635" id="Stroke-9"></path>
                    <path d="M18.5583942,14.0145985 L4.63722628,14.0145985" id="Stroke-1"></path>
                    <path d="M18.5583942,18.6861314 L4.63722628,18.6861314" id="Stroke-2"></path>
                    <path d="M18.5583942,23.649635 L4.63722628,23.649635" id="Stroke-3"></path>
                    <path d="M18.5583942,28.3211679 L4.63722628,28.3211679" id="Stroke-4"></path>
                </g>
            </g>
        </g>
    </g>
</svg>