<?xml version="1.0" encoding="UTF-8"?>
<!DOCTYPE svg PUBLIC "-//W3C//DTD SVG 1.1//EN" "http://www.w3.org/Graphics/SVG/1.1/DTD/svg11.dtd">
<!-- Creator: CorelDRAW X6 -->
<svg xmlns="http://www.w3.org/2000/svg" xml:space="preserve" width="1.11111in" height="2in" version="1.1" style="shape-rendering:geometricPrecision; text-rendering:geometricPrecision; image-rendering:optimizeQuality; fill-rule:evenodd; clip-rule:evenodd"
viewBox="0 0 1111 2000"
 xmlns:xlink="http://www.w3.org/1999/xlink">
 <defs>
  <style type="text/css">
   <![CDATA[
    .str0 {stroke:#6E6E6D;stroke-width:111.11;stroke-linecap:round;stroke-linejoin:round}
    .fil0 {fill:none;fill-rule:nonzero}
    .fil1 {fill:#6E6E6D;fill-rule:nonzero}
   ]]>
  </style>
 </defs>
 <g id="Layer_x0020_1">
  <metadata id="CorelCorpID_0Corel-Layer"/>
  <path class="fil0 str0" d="M1058 1709l0 29 0 49c0,87 -71,157 -157,157l-688 0c-87,0 -157,-71 -157,-157l0 -1577c0,-87 71,-157 157,-157l688 0c87,0 157,71 157,157l0 1285 -786 0"/>
  <path class="fil1" d="M631 1708c0,41 -34,75 -75,75 -41,0 -75,-34 -75,-75 0,-41 34,-75 75,-75 41,0 75,34 75,75z"/>
 </g>
</svg>
