<?xml version="1.0" encoding="UTF-8" standalone="no"?>
<svg width="14px" height="16px" viewBox="0 0 14 16" version="1.1" xmlns="http://www.w3.org/2000/svg" xmlns:xlink="http://www.w3.org/1999/xlink" xmlns:sketch="http://www.bohemiancoding.com/sketch/ns">
    <!-- Generator: sketchtool 3.4 (356) - http://www.bohemiancoding.com/sketch -->
    <title>Imported Layers Copy 2</title>
    <desc>Created with sketchtool.</desc>
    <defs></defs>
    <g id="Customer-Data" stroke="none" stroke-width="1" fill="none" fill-rule="evenodd" sketch:type="MSPage">
        <g id="Desktop:-2.4.1.1-Customer-Data-private-|-SOHO" sketch:type="MSArtboardGroup" transform="translate(-1091.000000, -797.000000)" fill="#4A4A4A">
            <g id="Imported-Layers-Copy-2" sketch:type="MSLayerGroup" transform="translate(1091.000000, 797.000000)">
                <path d="M12.8487333,1.70278788 L11.8202,1.70278788 L11.8202,1.27709091 C11.8202,0.837333333 11.4762667,0.48 11.0534667,0.48 C10.6302,0.48 10.2862667,0.837333333 10.2862667,1.27709091 L10.2862667,1.70278788 L3.68713333,1.70278788 L3.68713333,1.27709091 C3.68713333,0.837333333 3.3432,0.48 2.9204,0.48 C2.49713333,0.48 2.1532,0.837333333 2.1532,1.27709091 L2.1532,1.70278788 L1.12513333,1.70278788 C0.6972,1.70278788 0.349533333,2.06448485 0.349533333,2.50860606 L0.349533333,14.6889697 C0.349533333,15.1330909 0.6972,15.4947879 1.12513333,15.4947879 L12.8487333,15.4947879 C13.2762,15.4947879 13.6243333,15.1330909 13.6243333,14.6889697 L13.6243333,2.50860606 C13.6243333,2.06448485 13.2762,1.70278788 12.8487333,1.70278788 L12.8487333,1.70278788 Z M10.7529333,1.27709091 C10.7529333,1.1049697 10.8878,0.964848485 11.0534667,0.964848485 C11.2191333,0.964848485 11.3535333,1.1049697 11.3535333,1.27709091 L11.3535333,2.82472727 C11.3535333,2.99684848 11.2191333,3.1369697 11.0534667,3.1369697 C10.8878,3.1369697 10.7529333,2.99684848 10.7529333,2.82472727 L10.7529333,1.27709091 L10.7529333,1.27709091 Z M2.61986667,1.27709091 C2.61986667,1.1049697 2.75473333,0.964848485 2.9204,0.964848485 C3.08606667,0.964848485 3.22046667,1.1049697 3.22046667,1.27709091 L3.22046667,2.82472727 C3.22046667,2.99684848 3.08606667,3.1369697 2.9204,3.1369697 C2.75473333,3.1369697 2.61986667,2.99684848 2.61986667,2.82472727 L2.61986667,1.27709091 L2.61986667,1.27709091 Z M1.12513333,2.18763636 L2.1532,2.18763636 L2.1532,2.82472727 C2.1532,3.26448485 2.49713333,3.62181818 2.9204,3.62181818 C3.3432,3.62181818 3.68713333,3.26448485 3.68713333,2.82472727 L3.68713333,2.18763636 L10.2862667,2.18763636 L10.2862667,2.82472727 C10.2862667,3.26448485 10.6302,3.62181818 11.0534667,3.62181818 C11.4762667,3.62181818 11.8202,3.26448485 11.8202,2.82472727 L11.8202,2.18763636 L12.8487333,2.18763636 C13.0190667,2.18763636 13.1576667,2.33163636 13.1576667,2.50860606 L13.1576667,4.83587879 L0.8162,4.83587879 L0.8162,2.50860606 C0.8162,2.33163636 0.9548,2.18763636 1.12513333,2.18763636 L1.12513333,2.18763636 Z M12.8487333,15.0099394 L1.12513333,15.0099394 C0.9548,15.0099394 0.8162,14.8659394 0.8162,14.6889697 L0.8162,5.32072727 L13.1576667,5.32072727 L13.1576667,14.6889697 C13.1576667,14.8659394 13.0190667,15.0099394 12.8487333,15.0099394 L12.8487333,15.0099394 Z" id="Fill-1" sketch:type="MSShapeGroup"></path>
                <text id="10" sketch:type="MSTextLayer" font-family="Helvetica" font-size="6.53333333" font-weight="bold">
                    <tspan x="3.14948667" y="11.7509333">10</tspan>
                </text>
            </g>
        </g>
    </g>
</svg>